<?xml version="1.0" encoding="UTF-8" standalone="no"?>
<!-- Created with Inkscape (http://www.inkscape.org/) -->

<svg
   version="1.1"
   id="svg1"
   width="501.55103"
   height="501.55103"
   viewBox="0 0 501.55103 501.55103"
   sodipodi:docname="paint-bucket.svg"
   inkscape:version="1.3.2 (091e20e, 2023-11-25, custom)"
   xmlns:inkscape="http://www.inkscape.org/namespaces/inkscape"
   xmlns:sodipodi="http://sodipodi.sourceforge.net/DTD/sodipodi-0.dtd"
   xmlns="http://www.w3.org/2000/svg"
   xmlns:svg="http://www.w3.org/2000/svg">
  <defs
     id="defs1" />
  <sodipodi:namedview
     id="namedview1"
     pagecolor="#505050"
     bordercolor="#eeeeee"
     borderopacity="1"
     inkscape:showpageshadow="0"
     inkscape:pageopacity="0"
     inkscape:pagecheckerboard="0"
     inkscape:deskcolor="#d1d1d1"
     inkscape:zoom="1.5945292"
     inkscape:cx="190.96546"
     inkscape:cy="260.57848"
     inkscape:window-width="3440"
     inkscape:window-height="1369"
     inkscape:window-x="-8"
     inkscape:window-y="-8"
     inkscape:window-maximized="1"
     inkscape:current-layer="g1" />
  <g
     inkscape:groupmode="layer"
     inkscape:label="Image"
     id="g1">
    <path
       style="fill:#ffffff;stroke-width:0.999997;fill-opacity:1"
       d="m 426.24961,490.18044 c -26.23337,-6.03877 -44.48622,-30.01837 -42.56632,-55.92128 0.62998,-8.49941 4.05145,-19.06009 10.73826,-33.14457 9.49036,-19.98965 32.68715,-57.67845 37.40107,-60.76714 2.73326,-1.7909 8.86178,-2.03123 11.79303,-0.46247 4.1919,2.24344 27.12516,39.4936 36.82682,59.81726 3.46084,7.25001 7.51281,16.7833 9.00436,21.18509 6.56244,19.36669 1.70215,39.35354 -13.19031,54.24223 -10.21671,10.21413 -21.62121,15.28454 -35.88352,15.95373 -5.27384,0.24744 -10.60751,-0.0935 -14.12339,-0.90285 z M 188.9767,445.3261 C 179.99149,442.74322 160.03916,432.78601 147.83929,424.79648 114.15335,402.736 73.316089,364.07812 46.570118,328.93179 31.318117,308.88945 17.857487,285.17465 13.25517,270.23786 c -2.921443,-9.48154 -3.009285,-21.24694 -0.203865,-27.30521 1.974465,-4.26383 14.403369,-20.30302 18.78775,-24.24515 3.892172,-3.49955 9.223338,-2.90927 16.463975,1.82295 24.17181,15.79779 50.072389,24.75468 82.57848,28.55713 20.71916,2.42365 54.15709,1.55941 74.61016,-1.92839 15.52825,-2.64797 34.70954,-8.50323 39.05606,-11.92221 2.61685,-2.05841 4.34693,-7.29898 3.43311,-10.39917 -2.30428,-7.81729 -9.30979,-10.18045 -18.93399,-6.38694 -5.56204,2.19235 -20.56928,6.00934 -29.24222,7.43756 -11.6834,1.92397 -43.01449,3.06367 -56.32454,2.04886 C 84.74715,223.43927 43.300556,200.13827 34.530143,166.66636 31.049123,153.38118 32.971309,137.0655 39.671448,123.02663 55.425461,90.01706 102.79244,61.461052 152.85321,54.793026 l 11.89603,-1.584535 12.90537,-16.006504 c 16.24424,-20.147702 18.49149,-22.459226 24.40281,-25.100696 6.97913,-3.118627 19.62995,-2.9180798 30.95444,0.490705 34.54611,10.398719 83.01478,44.863264 128.78008,91.571454 45.24232,46.17444 76.64917,92.36013 84.8448,124.76944 1.48295,5.86426 1.85569,9.67831 1.54489,15.80764 -0.46413,9.15308 -2.12048,13.23141 -7.94373,19.55938 -4.01793,4.36617 -218.24993,177.42124 -223.44824,180.49987 -4.78577,2.83431 -18.85764,3.1006 -27.81296,0.52632 z M 389.65451,208.45819 C 368.06204,171.89298 325.59257,125.37456 282.93936,91.56905 272.10779,82.984306 250.13257,68.062584 242.99424,64.445318 l -4.72504,-2.394354 2.59523,4.523577 c 23.05793,40.190819 64.27792,86.332529 109.45637,122.525619 14.87966,11.92028 43.84666,31.09121 45.12183,29.86248 0.14546,-0.14016 -2.45919,-4.86716 -5.78812,-10.50445 z M 105.0865,127.15897 c 21.49697,-26.64871 38.96931,-48.568291 38.82743,-48.710179 -0.46494,-0.46494 -16.33004,4.148392 -23.37279,6.796439 -11.06064,4.158764 -28.553036,13.404959 -36.374597,19.22701 -8.780996,6.53622 -18.887549,17.11393 -22.758172,23.81914 -6.811616,11.79998 -8.570479,26.42413 -4.397942,36.56673 2.50858,6.09786 7.162704,12.59082 8.245055,11.50266 0.410075,-0.41228 18.334037,-22.55309 39.831016,-49.2018 z"
       id="path1" />
  </g>
</svg>
